<?xml version="1.0" encoding="UTF-8"?>
<svg id="Capa_1" data-name="Capa 1" xmlns="http://www.w3.org/2000/svg" viewBox="0 0 76.66 47.9">
  <defs>
    <style>
      .cls-1 {
        fill: #fff;
      }
    </style>
  </defs>
  <path class="cls-1" d="M24.55,9.46c-1.82-1.69-4.99.2-6.02-1.45L14.46,1.47c-2.24-.77-5.65-.24-8.15.46l-.81,7.81c-1.54.31-4.09,1.96-5.47,2.4h-.03c.01,1.04.21,2.08.27,3.12,2.26-.75,4.54-1.34,5.25-.95l-.46,33.59,17.25-.68-1.79-11.23c-1.19-7.47-.84-15.09-1.01-22.7l4.67-.98c.72-.15.92-2.34.38-2.85Z"/>
  <path class="cls-1" d="M76.66,19.14l-.82,12.38c-7.53,2.33-16.9,1.14-21.52-6.09-3.51-5.51-2.23-13.69,1.26-19.03,3.42-5.24,12.15-5.71,18.13-6.4.44,1.52.49,3.76.05,4.91-5.01-.2-9.66,2.55-10.28,7.36-.45,3.52,2.81,6.22,5.97,6.41l7.21.46Z"/>
  <path class="cls-1" d="M53.31,45.45c-1.38,1.3-2.95-1.36-4.72-2.75-1.33-1.04-7.21,3.37-7.21,3.37-.5.4-11.34.37-13.02-1.02-2.16-1.78-6.12-9.16-2.73-15.34l.89-1.57c.47-.82,1-1.26,1.71-1.81l2.7-2.07.86-2.15c-2.11-2.31-2.25-5.94-2.17-8.91.05-1.76,1.3-3.08,2.37-4.34,1.24-1.45,2.65-2.31,4.61-2.45,2.32-.17,4.58-.46,6.77.28,1.23.41,2.61.65,3.7,1.4,2.58,1.77,3.34,6.46,1.96,9.27-.56,1.15-1.56,2.44-2.47,3.23-.38.33-4.16,2.64-2.47,4.18,1.13,1.03,1.72,2.11,2.19,3.59l2.51,1.17,1.39-2.21c1.33-.95,2.47.21,3.35,1.05.98.95,2.26,2.06,1.8,3.6-.18.58-.95,1.38-1.25,1.82-.8,1.16-.34,2,.47,2.82l2.36,2.37c.45.45.43,2.08,0,2.54-2.03,2.14-1.41,1.85-3.59,3.91ZM43.17,13.51c-.29,0-.89.14-1.25.35-.6.34-.63,1.23-.41,1.92.16.52.79.96,1.63,1,.42-.73,1.27-3.27.03-3.28ZM40.22,35.39c.1-1.61-.74-2.27-1.47-3.23l-1.35-1.8c-.84-.02-2,.71-2.22,1.39-.34,1.08.16,2.04.61,2.78.7,1.16,1.04,1.92,2.66,1.8.58-.04,1.72-.32,1.76-.95Z"/>
</svg>